<svg width="75" height="74" viewBox="0 0 75 74" fill="none" xmlns="http://www.w3.org/2000/svg">
<g clip-path="url(#clip0_28_710)">
<path d="M11.0714 35.6785H65.25C65.9797 35.6785 66.5714 35.087 66.5714 34.3571C66.5714 33.6272 65.9799 33.0356 65.25 33.0356H11.0714C6.69259 33.0356 3.1429 29.486 3.1429 25.1071C3.1429 20.7282 6.69259 17.1785 11.0714 17.1785H65.25C65.9797 17.1785 66.5714 16.587 66.5714 15.8571C66.5714 15.1274 65.9799 14.5356 65.25 14.5356H11.0714C5.23296 14.5356 0.5 19.2688 0.5 25.1071C0.5 30.9454 5.23296 35.6785 11.0714 35.6785Z" fill="white"/>
<path d="M5.78564 25.1071C5.78564 28.0263 8.1522 30.3927 11.0713 30.3927H63.9284V19.8213H11.0714C8.1522 19.8214 5.78564 22.1878 5.78564 25.1071Z" fill="white"/>
<path d="M0.5 58.143V71.3573C0.5 72.0871 1.09157 72.6788 1.82145 72.6788H5.7858V56.8215H1.82145C1.09157 56.8215 0.5 57.4131 0.5 58.143Z" fill="white"/>
<path d="M1.82145 11.893H8.42855V1.32153H1.82145C1.09157 1.32153 0.5 1.9131 0.5 2.64298V10.5715C0.5 11.3013 1.09157 11.893 1.82145 11.893Z" fill="white"/>
<path d="M15.0356 38.3215H7.10709C6.37736 38.3215 5.78564 38.9131 5.78564 39.643V52.8573C5.78564 53.5871 6.37721 54.1788 7.10709 54.1788H15.0356V38.3215Z" fill="white"/>
<path d="M69.2143 10.5715V2.64298C69.2143 1.91324 68.6228 1.32153 67.8929 1.32153H61.2858V11.893H67.8929C68.6226 11.893 69.2143 11.3013 69.2143 10.5715Z" fill="white"/>
<path d="M56 1.32153H58.6429V11.893H56V1.32153Z" fill="white"/>
<path d="M16.3571 1.32153H53.3571V11.893H16.3571V1.32153Z" fill="white"/>
<path d="M11.0714 1.32153H13.7143V11.893H11.0714V1.32153Z" fill="white"/>
<path d="M8.42856 56.8215H11.0715V72.6786H8.42856V56.8215Z" fill="white"/>
<path d="M67.8929 56.8215H63.9286V72.6786H67.8929C68.6226 72.6786 69.2144 72.0871 69.2144 71.3572V58.1428C69.2144 57.4131 68.6226 56.8215 67.8929 56.8215Z" fill="white"/>
<path d="M17.6786 54.1786H62.6071V38.3215H17.6786V54.1786ZM22.9644 42.2857C22.9644 41.556 23.5559 40.9643 24.2858 40.9643H56C56.7297 40.9643 57.3215 41.5559 57.3215 42.2857V50.2143C57.3215 50.944 56.7299 51.5357 56 51.5357H24.2857C23.5559 51.5357 22.9642 50.9442 22.9642 50.2143V42.2857H22.9644Z" fill="white"/>
<path d="M73.1786 38.3215H65.25V54.1786H73.1786C73.9083 54.1786 74.5 53.5871 74.5 52.8572V39.6428C74.5 38.9131 73.9084 38.3215 73.1786 38.3215Z" fill="white"/>
<path d="M34.8571 67.393C40.6955 67.393 45.4285 66.2097 45.4285 64.7501C45.4285 63.2904 40.6955 62.1072 34.8571 62.1072C29.0186 62.1072 24.2856 63.2904 24.2856 64.7501C24.2856 66.2097 29.0186 67.393 34.8571 67.393Z" fill="white"/>
<path d="M25.6071 43.6072H54.6786V48.8928H25.6071V43.6072Z" fill="white"/>
<path d="M13.7144 72.6786H56V56.8215H13.7144V72.6786ZM34.8571 59.4644C41.2265 59.4644 48.0715 61.1163 48.0715 64.7501C48.0715 68.384 41.2265 70.0357 34.8571 70.0357C28.4878 70.0357 21.6429 68.384 21.6429 64.7501C21.6429 61.1161 28.4879 59.4644 34.8571 59.4644Z" fill="white"/>
<path d="M58.6429 56.8215H61.2858V72.6786H58.6429V56.8215Z" fill="white"/>
</g>
<defs>
<clipPath id="clip0_28_710">
<rect width="74" height="74" fill="white" transform="translate(0.5)"/>
</clipPath>
</defs>
</svg>
