<svg width="95" height="94" viewBox="0 0 95 94" fill="none" xmlns="http://www.w3.org/2000/svg">
<path fill-rule="evenodd" clip-rule="evenodd" d="M43.0372 85.633C30.7395 79.7441 17.4521 77.0775 4.33691 76.8132C4.09665 76.8084 3.86785 76.7095 3.69965 76.5379C3.53145 76.3663 3.43726 76.1355 3.4373 75.8952V17.1041C3.43675 16.9818 3.46073 16.8607 3.50782 16.7479C3.55491 16.635 3.62416 16.5328 3.71146 16.4472C3.79876 16.3616 3.90236 16.2944 4.01609 16.2496C4.12983 16.2047 4.25141 16.1831 4.37363 16.1861L7.01738 16.2764V70.9615C7.01738 71.3015 7.1521 71.6276 7.39204 71.8685C7.63199 72.1093 7.95759 72.2453 8.29758 72.2466C18.7971 72.2466 34.6949 76.9206 43.0383 85.6332L43.0372 85.633ZM9.57668 9.285C9.57616 9.15976 9.60136 9.03575 9.65074 8.92065C9.70011 8.80556 9.7726 8.70183 9.86371 8.6159C9.95482 8.52998 10.0626 8.46368 10.1804 8.42112C10.2982 8.37856 10.4234 8.36065 10.5484 8.3685C22.5367 9.07405 39.7298 14.9984 46.2148 25.8048V35.9391C45.7833 36.3282 45.4321 36.798 45.181 37.322C44.5768 36.9561 43.8935 36.7409 43.1887 36.6945C42.4839 36.648 41.7783 36.7717 41.1313 37.055C41.1591 36.83 41.1266 36.6017 41.0373 36.3934C40.9479 36.185 40.8049 36.0041 40.6227 35.8692C33.7453 30.7695 24.5456 27.4865 16.1427 26.111C15.8106 26.0637 15.4731 26.1486 15.2029 26.3473C14.9326 26.5461 14.751 26.8429 14.6971 27.174C14.6432 27.5052 14.7213 27.8442 14.9147 28.1184C15.108 28.3926 15.4011 28.5801 15.7311 28.6405C23.7382 29.9516 32.541 33.0652 39.0965 37.9269C39.2492 38.0404 39.4252 38.1184 39.6119 38.1551C39.3283 38.4706 39.0912 38.8249 38.9078 39.2075C38.0039 38.6604 36.9337 38.4561 35.8918 38.6318C34.85 38.8075 33.9059 39.3515 33.2315 40.1647C27.8171 37.5831 22.0633 35.7843 16.1427 34.8222C15.9766 34.7951 15.8068 34.8011 15.6429 34.8397C15.4791 34.8783 15.3245 34.9488 15.1879 35.0471C15.0513 35.1455 14.9355 35.2698 14.8469 35.4129C14.7584 35.5561 14.6989 35.7153 14.6719 35.8814C14.6448 36.0475 14.6508 36.2174 14.6894 36.3812C14.728 36.545 14.7985 36.6996 14.8969 36.8362C14.9952 36.9728 15.1195 37.0887 15.2627 37.1772C15.4058 37.2657 15.565 37.3252 15.7311 37.3523C21.4489 38.2806 27.0045 40.0219 32.2292 42.5234C32.2127 42.6791 32.2044 42.8355 32.2044 42.9921V48.3934C27.0878 46.0735 21.6872 44.4394 16.1427 43.5337C15.9766 43.5066 15.8068 43.5126 15.6429 43.5512C15.4791 43.5898 15.3245 43.6603 15.1879 43.7587C15.0513 43.857 14.9355 43.9813 14.8469 44.1245C14.7584 44.2676 14.6989 44.4268 14.6719 44.5929C14.6448 44.759 14.6508 44.9289 14.6894 45.0927C14.728 45.2565 14.7985 45.4111 14.8969 45.5477C14.9952 45.6843 15.1195 45.8002 15.2627 45.8887C15.4058 45.9773 15.565 46.0368 15.7311 46.0638C21.4416 46.9898 26.9902 48.7278 32.2086 51.2248C32.2169 53.1892 32.2364 55.1509 32.2375 57.1158C27.1104 54.7902 21.6985 53.1527 16.1422 52.2457C15.8067 52.1912 15.4632 52.2721 15.1874 52.4707C14.9115 52.6694 14.7259 52.9695 14.6713 53.305C14.6167 53.6405 14.6977 53.984 14.8963 54.2598C15.095 54.5356 15.395 54.7213 15.7306 54.7759C21.5697 55.7217 27.2384 57.5194 32.5555 60.1116C33.2807 62.1003 35.1092 63.4898 37.1598 63.8924V65.7331C37.1598 66.0739 37.2952 66.4008 37.5362 66.6418C37.7772 66.8829 38.1041 67.0183 38.445 67.0183H46.2148V85.347C37.9456 75.4 21.191 70.0874 9.57649 69.6982L9.57668 9.285ZM16.6234 21.2667C25.2102 22.671 33.4791 25.9573 39.3097 30.2832C39.5835 30.4862 39.9268 30.5722 40.264 30.5222C40.6012 30.4722 40.9047 30.2902 41.1078 30.0164C41.3109 29.7426 41.3969 29.3993 41.3468 29.0621C41.2968 28.7249 41.1149 28.4214 40.841 28.2183C34.6927 23.6578 26.016 20.2009 17.0379 18.7302C16.7014 18.6752 16.3569 18.7561 16.0801 18.9552C15.8033 19.1543 15.6169 19.4551 15.5619 19.7916C15.507 20.1281 15.5879 20.4726 15.787 20.7494C15.986 21.0262 16.2869 21.2126 16.6234 21.2676V21.2667ZM16.6234 63.5904C25.2102 64.9952 33.4791 68.2812 39.3097 72.6069C39.5319 72.7698 39.8002 72.8578 40.0758 72.8582C40.3463 72.8587 40.6101 72.7738 40.8295 72.6155C41.0489 72.4572 41.2127 72.2337 41.2975 71.9768C41.3823 71.72 41.3839 71.4429 41.3019 71.1851C41.2199 70.9273 41.0586 70.7019 40.841 70.5412C34.6907 65.9811 26.016 62.5219 17.0379 61.0531C16.7015 60.9981 16.3569 61.0791 16.0802 61.2781C15.8034 61.4772 15.617 61.778 15.562 62.1145C15.507 62.4509 15.588 62.7954 15.787 63.0722C15.9861 63.349 16.2869 63.5354 16.6234 63.5904ZM78.8578 26.1112C71.6453 27.2919 64.0785 29.8218 57.7954 33.5919C57.2673 33.2594 56.6748 33.0427 56.0569 32.956C55.439 32.8693 54.8097 32.9146 54.2106 33.0889C53.6115 33.2632 53.0561 33.5625 52.5811 33.9671C52.1061 34.3717 51.7223 34.8725 51.455 35.4363C50.7672 35.0188 49.9779 34.7983 49.1733 34.799C49.0428 34.799 48.9136 34.8047 48.7857 34.8161V25.8046C55.2704 14.9984 72.463 9.07405 84.4517 8.3685C84.5767 8.36068 84.702 8.37861 84.8197 8.42118C84.9375 8.46374 85.0453 8.53004 85.1364 8.61597C85.2275 8.70189 85.3 8.80561 85.3494 8.92069C85.3988 9.03577 85.424 9.15977 85.4235 9.285V69.6982C73.809 70.0874 57.0544 75.4 48.7851 85.347V67.0183H56.9452C57.286 67.0183 57.6129 66.8829 57.8539 66.6418C58.0949 66.4008 58.2303 66.0739 58.2303 65.7331V63.0418C59.5975 62.4862 60.752 61.7181 61.6352 60.5194C67.0547 57.7132 73.2527 55.7607 79.2689 54.7759C79.4359 54.7498 79.5961 54.6911 79.7403 54.6029C79.8845 54.5147 80.0098 54.3989 80.109 54.2621C80.2083 54.1253 80.2795 53.9702 80.3186 53.8057C80.3576 53.6413 80.3638 53.4707 80.3367 53.3039C80.3096 53.1371 80.2498 52.9773 80.1606 52.8337C80.0715 52.69 79.9549 52.5655 79.8174 52.4671C79.68 52.3688 79.5244 52.2986 79.3597 52.2606C79.195 52.2226 79.0245 52.2176 78.8578 52.2457C73.3086 53.1502 67.9036 54.7853 62.7836 57.1084L62.7904 56.647V51.2283C68.0089 48.73 73.5579 46.9908 79.2689 46.0636C79.4383 46.0403 79.6013 45.9834 79.7483 45.8962C79.8954 45.809 80.0235 45.6933 80.1251 45.5558C80.2268 45.4183 80.2999 45.2619 80.3402 45.0957C80.3804 44.9295 80.387 44.757 80.3596 44.5882C80.3322 44.4195 80.2713 44.2579 80.1805 44.1131C80.0896 43.9682 79.9708 43.843 79.8308 43.7448C79.6909 43.6465 79.5327 43.5773 79.3656 43.5412C79.1985 43.505 79.0258 43.5026 78.8578 43.5342C73.3039 44.4406 67.8944 46.0779 62.77 48.4035C62.6781 47.5805 62.3576 46.7997 61.845 46.1494C61.3324 45.4991 60.648 45.0052 59.8693 44.7235V44.0553C65.7002 40.7139 72.6529 38.436 79.2703 37.3528C79.6059 37.2981 79.9059 37.1124 80.1045 36.8364C80.303 36.5605 80.3838 36.217 80.3291 35.8815C80.2744 35.546 80.0887 35.2459 79.8127 35.0474C79.5368 34.8488 79.1933 34.768 78.8578 34.8227C72.3586 35.8875 65.6875 38.0183 59.8683 41.1321V37.3348C59.8689 36.7246 59.7422 36.121 59.4964 35.5626C65.4191 32.0899 72.5132 29.7473 79.2694 28.6411C79.437 28.6157 79.5978 28.5573 79.7427 28.4693C79.8875 28.3813 80.0134 28.2655 80.1132 28.1285C80.213 27.9915 80.2846 27.8361 80.3239 27.6712C80.3632 27.5064 80.3694 27.3354 80.3422 27.1681C80.315 27.0008 80.2549 26.8406 80.1654 26.6967C80.0758 26.5529 79.9586 26.4282 79.8206 26.3299C79.6825 26.2316 79.5264 26.1616 79.3611 26.1241C79.1958 26.0866 79.0248 26.0822 78.8578 26.1112ZM79.4365 19.7913C79.3815 19.4552 79.1954 19.1546 78.9189 18.9556C78.6424 18.7566 78.2983 18.6755 77.962 18.7302C68.9843 20.2009 60.308 23.6578 54.1589 28.2183C54.0233 28.3188 53.9088 28.4451 53.8219 28.5899C53.7351 28.7347 53.6776 28.8952 53.6528 29.0622C53.628 29.2292 53.6363 29.3995 53.6773 29.5633C53.7183 29.7271 53.7912 29.8812 53.8917 30.0169C53.9923 30.1525 54.1185 30.267 54.2634 30.3538C54.4082 30.4407 54.5686 30.4982 54.7357 30.523C54.9027 30.5478 55.0729 30.5395 55.2367 30.4985C55.4005 30.4575 55.5546 30.3846 55.6903 30.2841C61.5209 25.9582 69.7903 22.6719 78.3766 21.2676C78.7129 21.2124 79.0135 21.0258 79.2123 20.749C79.411 20.4721 79.4917 20.1276 79.4365 19.7913ZM79.4365 62.1152C79.4097 61.9486 79.3502 61.7889 79.2615 61.6453C79.1728 61.5017 79.0566 61.377 78.9197 61.2784C78.7827 61.1798 78.6276 61.1092 78.4632 61.0707C78.2989 61.0322 78.1286 61.0266 77.962 61.054C68.9843 62.5228 60.3099 65.9821 54.1589 70.5422C53.885 70.7452 53.703 71.0488 53.6529 71.3861C53.6028 71.7234 53.6887 72.0667 53.8918 72.3406C54.0949 72.6146 54.3984 72.7966 54.7357 72.8467C55.073 72.8968 55.4164 72.8108 55.6903 72.6078C61.5209 68.2821 69.7903 64.9962 78.3766 63.5913C78.5432 63.5639 78.7028 63.504 78.8462 63.415C78.9896 63.326 79.1141 63.2095 79.2126 63.0724C79.311 62.9352 79.3814 62.78 79.4198 62.6156C79.4583 62.4512 79.4639 62.2809 79.4365 62.1143V62.1152ZM41.048 41.1066V46.9985C41.05 47.4025 41.1833 47.7949 41.4278 48.1165C41.6724 48.4381 42.0148 48.6715 42.4036 48.7815C42.4231 47.9969 42.6507 47.2315 43.0632 46.5637C43.4756 45.896 44.0581 45.3498 44.751 44.9811V41.1066C44.751 38.6723 41.048 38.6721 41.048 41.1066ZM43.1977 51.4086C43.0959 51.4163 42.9966 51.4202 42.8995 51.4203C42.0949 51.4209 41.3057 51.2006 40.6178 50.7832C40.1195 51.8335 39.2272 52.6449 38.1345 53.0414C37.0418 53.4379 35.8368 53.3875 34.781 52.9012C34.7914 54.7068 34.8082 56.5106 34.8082 58.3172C34.8082 60.2266 36.6711 61.4467 38.4446 61.4467C38.7854 61.4467 39.1123 61.5821 39.3533 61.8232C39.5943 62.0642 39.7298 62.391 39.7298 62.7319V64.4481H55.66V62.1385C55.66 61.4757 56.0659 61.083 56.6578 60.8857C58.6605 60.2324 60.2095 59.0977 60.2296 56.8169V48.8856C60.2262 48.3948 60.0294 47.9251 59.6819 47.5785C59.3344 47.2319 58.8642 47.0362 58.3733 47.0341H46.8236C46.3358 47.0389 45.8696 47.2361 45.5263 47.5828C45.1831 47.9295 44.9905 48.3977 44.9905 48.8855C44.9905 49.3734 45.1831 49.8415 45.5263 50.1882C45.8696 50.5349 46.3358 50.7321 46.8236 50.737H54.6264C54.9441 50.7367 55.2508 50.8541 55.487 51.0666C55.7233 51.279 55.8725 51.5715 55.9058 51.8876C55.9391 52.2036 55.8541 52.5207 55.6672 52.7778C55.4804 53.0348 55.2049 53.2135 54.894 53.2794C52.8174 53.9372 51.2807 55.152 51.3153 57.4837C51.3177 57.6521 51.2868 57.8193 51.2245 57.9757C51.1622 58.1322 51.0696 58.2748 50.9521 58.3954C50.8346 58.516 50.6944 58.6122 50.5397 58.6786C50.3849 58.745 50.2185 58.7801 50.0501 58.7821C49.8818 58.7841 49.7146 58.7528 49.5584 58.6901C49.4021 58.6273 49.2597 58.5344 49.1394 58.4166C49.0191 58.2987 48.9232 58.1583 48.8573 58.0034C48.7913 57.8484 48.7566 57.682 48.755 57.5136C48.7288 55.7366 49.2862 54.3652 50.1667 53.3073H46.8236C46.111 53.3066 45.4091 53.1336 44.7776 52.8032C44.1462 52.4728 43.604 51.9947 43.1971 51.4097L43.1977 51.4086ZM53.5953 37.3348V44.4628H57.2975V37.3348C57.2926 36.847 57.0954 36.3808 56.7487 36.0375C56.402 35.6943 55.9339 35.5017 55.446 35.5017C54.9582 35.5017 54.49 35.6943 54.1433 36.0375C53.7966 36.3808 53.5994 36.847 53.5946 37.3348H53.5953ZM47.3221 39.2207V44.4628H51.025V39.2207C51.0201 38.7328 50.8229 38.2666 50.4762 37.9234C50.1296 37.5801 49.6614 37.3876 49.1735 37.3876C48.6857 37.3876 48.2175 37.5801 47.8708 37.9234C47.5242 38.2666 47.3269 38.7328 47.3221 39.2207ZM36.627 41.1413C36.1367 41.1435 35.6671 41.3393 35.3204 41.686C34.9736 42.0327 34.7778 42.5023 34.7755 42.9926V48.8847C34.7803 49.3725 34.9775 49.8387 35.3242 50.182C35.6709 50.5253 36.1391 50.7178 36.6269 50.7178C37.1148 50.7178 37.5829 50.5253 37.9296 50.182C38.2763 49.8387 38.4735 49.3725 38.4784 48.8847V42.9926C38.4761 42.5023 38.2803 42.0327 37.9336 41.686C37.5869 41.3393 37.1173 41.1435 36.627 41.1413ZM51.9628 85.6328C64.2606 79.7441 77.5477 77.0785 90.6629 76.8132C90.9031 76.8084 91.1319 76.7095 91.3001 76.5379C91.4683 76.3663 91.5625 76.1355 91.5625 75.8952V17.1041C91.563 16.9818 91.5391 16.8607 91.492 16.7479C91.4449 16.635 91.3756 16.5328 91.2883 16.4472C91.201 16.3616 91.0974 16.2944 90.9837 16.2496C90.87 16.2047 90.7484 16.1831 90.6262 16.1861L87.9824 16.2764V70.8488C87.9987 71.0265 87.9776 71.2056 87.9206 71.3748C87.8636 71.5439 87.7719 71.6992 87.6514 71.8308C87.5309 71.9625 87.3842 72.0674 87.2208 72.1391C87.0573 72.2107 86.8807 72.2474 86.7022 72.2468C76.2043 72.2465 60.306 76.9204 51.9628 85.6328Z" fill="white"/>
</svg>
