<svg width="111" height="111" viewBox="0 0 111 111" fill="none" xmlns="http://www.w3.org/2000/svg">
<g clip-path="url(#clip0_28_398)">
<path d="M25.53 23.7996C25.3159 23.7997 25.1066 23.7363 24.9285 23.6175C24.7504 23.4986 24.6115 23.3297 24.5294 23.1319C24.4473 22.9342 24.4257 22.7165 24.4673 22.5065C24.5088 22.2965 24.6117 22.1035 24.7629 21.9519C32.4135 14.3014 42.6509 9.79218 53.4597 9.31199C64.2685 8.8318 74.8655 12.4155 83.1643 19.3574C83.2776 19.4474 83.3717 19.5591 83.4411 19.6861C83.5105 19.8131 83.5538 19.9527 83.5683 20.0966C83.5829 20.2406 83.5684 20.386 83.5258 20.5243C83.4832 20.6626 83.4134 20.7909 83.3203 20.9018C83.2273 21.0126 83.113 21.1036 82.9842 21.1696C82.8554 21.2355 82.7146 21.2749 82.5703 21.2855C82.426 21.2961 82.281 21.2777 82.144 21.2314C82.0069 21.185 81.8805 21.1116 81.7723 21.0156C65.6028 7.45873 41.2347 8.54165 26.2948 23.4838C26.1944 23.5842 26.0752 23.6638 25.9439 23.718C25.8127 23.7722 25.672 23.7999 25.53 23.7996Z" fill="white"/>
<path d="M76.2674 21.5209C75.9879 21.5149 75.7216 21.4012 75.5241 21.2034C75.3266 21.0056 75.2133 20.7391 75.2077 20.4597C75.2022 20.1802 75.3049 19.9094 75.4944 19.704C75.6839 19.4985 75.9455 19.3743 76.2245 19.3573L81.3436 19.1475L81.1496 14.0103C81.1456 13.7277 81.2522 13.4548 81.4467 13.2497C81.6413 13.0447 81.9082 12.9238 82.1906 12.9129C82.4731 12.902 82.7485 13.002 82.9583 13.1914C83.168 13.3809 83.2954 13.6448 83.3132 13.9269L83.5501 20.1447C83.5564 20.287 83.5346 20.4291 83.4858 20.563C83.437 20.6968 83.3622 20.8197 83.2658 20.9245C83.1693 21.0294 83.0531 21.1141 82.9238 21.1739C82.7945 21.2336 82.6546 21.2672 82.5123 21.2727L76.3125 21.5254L76.2674 21.5209Z" fill="white"/>
<path d="M54.2333 94.6974C44.0776 94.7095 34.2434 91.1374 26.463 84.6104C26.3466 84.5216 26.2495 84.4101 26.1774 84.2827C26.1053 84.1553 26.0598 84.0146 26.0437 83.8692C26.0275 83.7237 26.041 83.5765 26.0833 83.4363C26.1257 83.2962 26.196 83.1661 26.29 83.054C26.384 82.9418 26.4998 82.8498 26.6303 82.7836C26.7609 82.7175 26.9035 82.6784 27.0496 82.6689C27.1956 82.6594 27.3421 82.6796 27.4802 82.7283C27.6182 82.777 27.7449 82.8531 27.8527 82.9522C44.0222 96.5091 68.3903 95.4239 83.3302 80.484C83.5333 80.2809 83.8088 80.1667 84.0961 80.1667C84.3834 80.1667 84.6589 80.2809 84.862 80.484C85.0652 80.6872 85.1793 80.9627 85.1793 81.25C85.1793 81.5372 85.0652 81.8128 84.862 82.0159C77.1889 89.707 66.898 94.2225 56.0427 94.6613C55.4403 94.6861 54.8356 94.6974 54.2333 94.6974Z" fill="white"/>
<path d="M27.3925 91.081C27.1128 91.0811 26.8439 90.9729 26.6423 90.7789C26.4408 90.585 26.3223 90.3204 26.3118 90.0409L26.0862 83.8231C26.0798 83.6808 26.1017 83.5386 26.1505 83.4048C26.1993 83.2709 26.274 83.1481 26.3705 83.0432C26.4669 82.9384 26.5832 82.8537 26.7125 82.7939C26.8418 82.7341 26.9816 82.7005 27.124 82.695L33.3238 82.4424C33.607 82.4367 33.8812 82.5423 34.0875 82.7365C34.2938 82.9307 34.4158 83.198 34.4273 83.4811C34.4388 83.7641 34.3389 84.0405 34.1491 84.2507C33.9592 84.461 33.6945 84.5886 33.4117 84.6059L28.2927 84.8158L28.4754 89.9574C28.4814 90.0998 28.4593 90.2421 28.4103 90.3759C28.3612 90.5098 28.2862 90.6326 28.1896 90.7374C28.093 90.8422 27.9766 90.9269 27.8472 90.9866C27.7177 91.0464 27.5778 91.0799 27.4353 91.0855L27.3925 91.081Z" fill="white"/>
<path d="M33.591 43.5459L26.2253 36.2866C26.0388 36.103 25.7877 36 25.526 36H9.04297C7.39526 36 6.05469 37.3406 6.05469 38.9883V67.0117C6.05469 68.6594 7.39526 70 9.04297 70H30.8997C32.5474 70 33.888 68.6594 33.888 67.0117V44.2554C33.8877 43.9887 33.7809 43.7332 33.591 43.5459ZM26.5221 39.3763L30.4621 43.2593H26.5221V39.3763ZM9.04297 37.9922H24.5299V44.2554C24.5299 44.8056 24.9761 45.2515 25.526 45.2515H31.8958V61.8131V63.8053H8.04687V61.8131V38.9883C8.04687 38.4391 8.49382 37.9922 9.04297 37.9922ZM30.8994 68.0078H9.04297C8.49382 68.0078 8.04687 67.5609 8.04687 67.0117V63.8053H31.8958V67.0117C31.8955 67.5609 31.4489 68.0078 30.8994 68.0078Z" fill="white"/>
<path d="M13.8738 62.5796C14.1793 62.7325 14.5147 62.8076 14.8483 62.8076C15.2628 62.8076 15.6749 62.6913 16.0245 62.4634L26.9388 56.2077C26.9786 56.185 27.017 56.1602 27.0543 56.1337C27.5577 55.7737 27.8465 55.227 27.8462 54.6342C27.8462 54.0418 27.5573 53.4954 27.0539 53.1355C27.017 53.109 26.9783 53.0842 26.9388 53.0615L16.0245 46.8058C15.3936 46.3942 14.5591 46.3467 13.8734 46.6895C13.2159 47.0187 12.8077 47.6562 12.8077 48.3537V60.9154C12.8077 61.6129 13.2162 62.2507 13.8738 62.5796ZM15.536 49.6297L24.2681 54.6346L15.536 59.6398V49.6297Z" fill="white"/>
<path d="M71.591 43.5459L64.2253 36.2866C64.0388 36.103 63.7877 36 63.526 36H47.043C45.3953 36 44.0547 37.3406 44.0547 38.9883V67.0117C44.0547 68.6594 45.3953 70 47.043 70H68.8997C70.5474 70 71.888 68.6594 71.888 67.0117V44.2554C71.8877 43.9887 71.7809 43.7332 71.591 43.5459ZM64.5221 39.3763L68.4621 43.2593H64.5221V39.3763ZM47.043 37.9922H62.5299V44.2554C62.5299 44.8056 62.9761 45.2515 63.526 45.2515H69.8958V61.8131V63.8053H46.0469V61.8131V38.9883C46.0469 38.4391 46.4938 37.9922 47.043 37.9922ZM68.8994 68.0078H47.043C46.4938 68.0078 46.0469 67.5609 46.0469 67.0117V63.8053H69.8958V67.0117C69.8955 67.5609 69.4489 68.0078 68.8994 68.0078Z" fill="white"/>
<path d="M64.0647 46.491L59.1955 47.4449C58.5121 47.5788 58.0228 48.1398 58.0228 48.7897V54.7982C57.5606 54.6456 57.0637 54.5618 56.546 54.5618C54.103 54.5618 52.1154 56.4113 52.1154 58.6847C52.1154 60.958 54.103 62.8076 56.546 62.8076C58.989 62.8076 60.9766 60.958 60.9766 58.6847V49.9048L64.6732 49.1808C65.4714 49.0244 65.9822 48.2955 65.8142 47.5528C65.6461 46.8101 64.863 46.3352 64.0647 46.491ZM56.546 60.059C55.7316 60.059 55.0691 59.4425 55.0691 58.6847C55.0691 57.9269 55.7316 57.3104 56.546 57.3104C57.3603 57.3104 58.0228 57.9269 58.0228 58.6847C58.0228 59.4425 57.3603 60.059 56.546 60.059Z" fill="white"/>
<path d="M109.591 43.5459L102.225 36.2866C102.039 36.103 101.788 36 101.526 36H85.043C83.3953 36 82.0547 37.3406 82.0547 38.9883V67.0117C82.0547 68.6594 83.3953 70 85.043 70H106.9C108.547 70 109.888 68.6594 109.888 67.0117V44.2554C109.888 43.9887 109.781 43.7332 109.591 43.5459ZM102.522 39.3763L106.462 43.2593H102.522V39.3763ZM85.043 37.9922H100.53V44.2554C100.53 44.8056 100.976 45.2515 101.526 45.2515H107.896V61.8131V63.8053H84.0469V61.8131V38.9883C84.0469 38.4391 84.4938 37.9922 85.043 37.9922ZM106.899 68.0078H85.043C84.4938 68.0078 84.0469 67.5609 84.0469 67.0117V63.8053H107.896V67.0117C107.896 67.5609 107.449 68.0078 106.899 68.0078Z" fill="white"/>
<path fill-rule="evenodd" clip-rule="evenodd" d="M88.1985 49.7308H92.6861C93.0719 49.7308 93.3846 49.4181 93.3846 49.0323V44.5447C93.3846 44.1589 93.0719 43.8462 92.6861 43.8462H88.1985C87.8127 43.8462 87.5 44.1589 87.5 44.5447V49.0323C87.5 49.4181 87.8127 49.7308 88.1985 49.7308ZM88.897 45.2431H91.9876V48.3339H88.897V45.2431Z" fill="white"/>
<path fill-rule="evenodd" clip-rule="evenodd" d="M95.344 49.7308H103.848C104.208 49.7308 104.5 49.4381 104.5 49.0769C104.5 48.7158 104.208 48.4231 103.848 48.4231H95.344C94.984 48.4231 94.6923 48.7158 94.6923 49.0769C94.6923 49.4381 94.984 49.7308 95.344 49.7308Z" fill="white"/>
<path fill-rule="evenodd" clip-rule="evenodd" d="M88.1634 54.3077H103.837C104.203 54.3077 104.5 53.8683 104.5 53.327C104.5 52.7852 104.203 52.3462 103.837 52.3462H88.1634C87.797 52.3462 87.5 52.7852 87.5 53.327C87.5 53.8683 87.797 54.3077 88.1634 54.3077Z" fill="white"/>
<path fill-rule="evenodd" clip-rule="evenodd" d="M88.1634 58.2308H103.837C104.203 58.2308 104.5 57.7914 104.5 57.2501C104.5 56.7083 104.203 56.2693 103.837 56.2693H88.1634C87.797 56.2693 87.5 56.7083 87.5 57.2501C87.5 57.7914 87.797 58.2308 88.1634 58.2308Z" fill="white"/>
<path fill-rule="evenodd" clip-rule="evenodd" d="M97.9561 60.8462H88.1593C87.7952 60.8462 87.5 61.1389 87.5 61.5C87.5 61.8612 87.7952 62.1539 88.1593 62.1539H97.9561C98.3202 62.1539 98.6154 61.8612 98.6154 61.5C98.6154 61.1389 98.3202 60.8462 97.9561 60.8462Z" fill="white"/>
<path fill-rule="evenodd" clip-rule="evenodd" d="M100.577 62.1539C100.937 62.1539 101.231 61.8602 101.231 61.5C101.231 61.1399 100.937 60.8462 100.577 60.8462C100.217 60.8462 99.9231 61.1399 99.9231 61.5C99.9231 61.8602 100.217 62.1539 100.577 62.1539Z" fill="white"/>
</g>
<defs>
<clipPath id="clip0_28_398">
<rect width="111" height="111" fill="white"/>
</clipPath>
</defs>
</svg>
