<svg width="102" height="101" viewBox="0 0 102 101" fill="none" xmlns="http://www.w3.org/2000/svg">
<g clip-path="url(#clip0_28_394)">
<path d="M85.1928 42.3212C86.6305 40.0215 86.1027 37.0313 83.9678 35.3678L77.143 30.0206C76.6576 29.6422 76.3901 29.1788 76.3023 28.5686L75.1007 19.9787C74.7243 17.2928 72.4012 15.3397 69.6969 15.4392L61.0365 15.7401C60.4244 15.764 59.9215 15.5809 59.4629 15.1676L53.0268 9.36057C53.0268 9.36057 53.0263 9.36 53.0259 9.35981C51.0123 7.54623 47.9797 7.54698 45.9734 9.36057L39.5379 15.1671C39.0787 15.5813 38.5788 15.7653 37.9597 15.7399L29.3056 15.4392C26.5952 15.3443 24.2763 17.2926 23.8996 19.9781L22.6924 28.5705C22.6077 29.1817 22.3422 29.6424 21.8548 30.0223L15.0278 35.367C12.8959 37.0345 12.3712 40.0242 13.8067 42.3198L18.3978 49.6794C18.7242 50.2026 18.8165 50.73 18.6888 51.3366L16.8868 59.8184C16.3237 62.4646 17.8372 65.0959 20.4106 65.94L23.7631 67.0308L14.2438 90.7359C13.8035 91.8329 13.9161 92.9063 14.5526 93.6808C15.1762 94.4392 16.182 94.7502 17.3137 94.5328L27.7219 92.5299L34.3389 100.814C34.9542 101.583 35.7481 102 36.5672 102C36.7089 102 36.8513 101.988 36.9938 101.962C37.9779 101.787 38.7582 101.045 39.1349 99.923L46.702 77.3163L48.6554 76.5257C49.2315 76.2949 49.7689 76.2945 50.3405 76.5238L52.299 77.3165L59.8663 99.9243C60.2424 101.044 61.0227 101.787 62.0068 101.962C62.1493 101.987 62.2915 102 62.4333 102C63.2523 102 64.0466 101.582 64.6629 100.813L71.2787 92.5299L81.6835 94.533C82.8163 94.75 83.8246 94.4385 84.4484 93.6789C85.0842 92.905 85.1967 91.8322 84.7566 90.7353L75.2325 67.0314L78.5932 65.9387C81.1632 65.0958 82.6767 62.4646 82.1136 59.8185L80.3122 51.3394C80.1837 50.7298 80.2762 50.2024 80.6024 49.6792L85.1928 42.321V42.3212ZM77.3477 51.9684L79.1497 60.4509C79.3892 61.5762 78.7442 62.6956 77.6536 63.0532L72.8366 64.6195C72.7753 64.6356 72.7142 64.6544 72.6538 64.6788C72.6534 64.6788 72.6533 64.6792 72.6529 64.6792L69.4108 65.7334C68.0633 66.171 67.0459 67.0276 66.3899 68.2742L62.3186 75.9354C61.7799 76.9504 60.5705 77.3912 59.5047 76.9595L51.4706 73.7075C50.1632 73.1835 48.8368 73.1837 47.5247 73.7096L39.4953 76.9595C38.4276 77.3921 37.2154 76.9517 36.6761 75.9352L32.6131 68.2797C31.9533 67.0261 30.9333 66.1689 29.5849 65.7336L26.3135 64.6692C26.2652 64.6508 26.2166 64.6349 26.1678 64.6218L21.3502 63.0542C20.2558 62.6951 19.611 61.5759 19.8503 60.4504L21.6531 51.9654C21.9451 50.5784 21.7142 49.2681 20.9674 48.071L16.3756 40.7102C15.7657 39.735 15.9883 38.4662 16.8932 37.7586L23.7183 32.4153C24.8341 31.5452 25.4987 30.3921 25.6932 28.9907L26.9 20.4007C27.0563 19.2871 27.9999 18.4707 29.1151 18.4707C29.1427 18.4707 29.1705 18.4713 29.1981 18.4723L37.8504 18.7728C39.2418 18.8276 40.5269 18.3582 41.5651 17.4226L48.0023 11.6146C48.8542 10.8438 50.1428 10.8452 50.9993 11.6165L57.435 17.4233C58.4871 18.3713 59.7348 18.8251 61.1449 18.7732L69.8038 18.4724C70.9534 18.4237 71.9396 19.2597 72.0995 20.4003L73.3017 28.9962C73.5039 30.3985 74.1699 31.5492 75.2783 32.4134L82.1036 37.7609C83.0099 38.4674 83.2337 39.7352 82.6231 40.7117L78.032 48.0712C77.2852 49.2681 77.0544 50.5784 77.3471 51.9684H77.3477ZM49.4976 21.4331C37.0307 21.4331 26.8883 31.5939 26.8883 44.0834C26.8883 56.5729 37.0307 66.7284 49.4976 66.7284C61.9644 66.7284 72.1119 56.57 72.1119 44.0834C72.1119 31.5968 61.9672 21.4331 49.4976 21.4331ZM54.6173 49.0346L56.6785 55.3543L51.3111 51.4304C50.2194 50.639 48.7595 50.6426 47.6831 51.4349L42.3217 55.3543L44.3816 49.0379C44.8026 47.7553 44.3506 46.3622 43.2581 45.5708L37.8829 41.6776L44.5023 41.6875C44.5154 41.6876 44.5284 41.6876 44.5417 41.6876C45.8858 41.6876 47.0568 40.828 47.459 39.5504L49.4991 33.2275L51.5376 39.5597C51.961 40.8491 53.1496 41.7151 54.4775 41.6876L61.1124 41.6776L55.7423 45.5705C54.6495 46.362 54.1975 47.7553 54.6173 49.0345V49.0346Z" fill="white"/>
</g>
<defs>
<clipPath id="clip0_28_394">
<rect width="101" height="101" fill="white" transform="translate(0.5)"/>
</clipPath>
</defs>
</svg>
