<svg width="103" height="102" viewBox="0 0 103 102" fill="none" xmlns="http://www.w3.org/2000/svg">
<path d="M43.7066 20.5116L42.4156 28.1297C42.304 28.7194 42.5591 29.3251 43.0531 29.6916C43.5312 30.0422 44.2006 30.0901 44.7265 29.8032L51.5 26.2172L58.2734 29.8032C58.5125 29.9307 58.7675 29.9785 59.0225 29.9785C59.3412 29.9785 59.6759 29.8829 59.9469 29.6916C60.4409 29.3251 60.6959 28.7194 60.5844 28.1297L59.2934 20.5116L64.7759 15.1247C65.2222 14.6944 65.3656 14.0729 65.1744 13.4832C64.9991 12.9094 64.489 12.4951 63.8994 12.4154L56.329 11.2997L52.9344 4.38287C52.3925 3.28318 50.6075 3.28318 50.0656 4.38287L46.6709 11.2997L39.1006 12.4154C38.5109 12.4951 38.0009 12.9094 37.8256 13.4832C37.6344 14.0729 37.7778 14.6944 38.2241 15.1247L43.7066 20.5116Z" fill="white"/>
<path d="M99.2328 24.6393C99.0416 24.0655 98.5475 23.6512 97.9419 23.5715L90.3716 22.4559L86.9769 15.539C86.7219 14.9971 86.1641 14.6465 85.5584 14.6465C84.9528 14.6465 84.395 14.9971 84.1241 15.539L80.7294 22.4559L73.1591 23.5715C72.5534 23.6512 72.0594 24.0655 71.8681 24.6393C71.6769 25.229 71.8362 25.8505 72.2666 26.2809L77.765 31.6677L76.4581 39.2859C76.3625 39.8755 76.6016 40.4812 77.0956 40.8477C77.3825 41.039 77.7012 41.1346 78.0359 41.1346C78.2909 41.1346 78.5459 41.0868 78.785 40.9593L85.5584 37.3734L92.3319 40.9593C92.8578 41.2462 93.5112 41.1984 94.0053 40.8477C94.4994 40.4812 94.7384 39.8755 94.6428 39.2859L93.3519 31.6677L98.8344 26.2809C99.2647 25.8505 99.4241 25.229 99.2328 24.6393Z" fill="white"/>
<path d="M24.9641 41.1347C25.2988 41.1347 25.6175 41.0391 25.9044 40.8479C26.3984 40.4813 26.6375 39.8757 26.5419 39.286L25.235 31.6679L30.7334 26.281C31.1638 25.8507 31.3231 25.2291 31.1319 24.6394C30.9406 24.0657 30.4466 23.6513 29.8409 23.5716L22.2706 22.456L18.8759 15.5391C18.35 14.4394 16.5491 14.4394 16.0231 15.5391L12.6284 22.456L5.05813 23.5716C4.4525 23.6513 3.95844 24.0657 3.76719 24.6394C3.57594 25.2291 3.73532 25.8507 4.16563 26.281L9.64813 31.6679L8.35719 39.286C8.26157 39.8757 8.50063 40.4813 8.99469 40.8479C9.48875 41.1985 10.1422 41.2463 10.6681 40.9594L17.4416 37.3735L24.215 40.9594C24.4541 41.0869 24.7091 41.1347 24.9641 41.1347Z" fill="white"/>
<path d="M69.6847 56.3073H60.6163L61.445 45.0076C61.5885 43.1907 60.951 41.3898 59.7078 40.051C58.4647 38.7123 56.7116 37.9473 54.8947 37.9473C52.5997 37.9473 50.4481 39.1745 49.2688 41.1348L44.1369 49.6454C41.4913 54.0123 38.0806 57.7098 34.0006 60.7538C33.1241 59.8773 31.9128 59.3513 30.59 59.3513H26.0319C23.3225 59.3513 21.1231 61.5507 21.1231 64.2441V92.9635C21.1231 95.6729 23.3225 97.8723 26.0319 97.8723H30.59C32.2316 97.8723 33.6819 97.0435 34.5744 95.7845L67.2622 98.4141C67.581 98.4301 67.9156 98.446 68.2344 98.446C74.5138 98.446 79.8688 93.617 80.3788 87.2579L81.8291 69.4716C82.1 66.0929 80.9366 62.7301 78.6416 60.2279C76.3466 57.7257 73.0794 56.3073 69.6847 56.3073ZM78.6575 69.2166L77.2072 86.987C76.8088 91.9276 72.4578 95.6251 67.5172 95.2266L35.4828 92.6607V64.2441C35.4828 64.0529 35.451 63.8776 35.435 63.7023C40.0569 60.3554 43.8978 56.1957 46.8622 51.287L51.9941 42.7763C52.5997 41.7723 53.7153 41.1348 54.8947 41.1348C55.851 41.1348 56.7275 41.5332 57.381 42.2185C58.0185 42.9198 58.3372 43.8282 58.2735 44.7685L57.3172 57.7735C57.2853 58.2198 57.4288 58.6501 57.7316 58.9848C58.0344 59.3035 58.4647 59.4948 58.895 59.4948H69.6847C72.2188 59.4948 74.5775 60.5148 76.2988 62.3954C78.02 64.2601 78.8647 66.6826 78.6575 69.2166Z" fill="white"/>
</svg>
