<svg width="140" height="139" viewBox="0 0 140 139" fill="none" xmlns="http://www.w3.org/2000/svg">
<path d="M84.2472 84.7524H78.1722C77.3306 84.7524 76.6487 85.4343 76.6487 86.2759C76.6487 87.1174 77.3306 87.7993 78.1722 87.7993H84.2472C85.0888 87.7993 85.7707 87.1174 85.7707 86.2759C85.7707 85.4343 85.0888 84.7524 84.2472 84.7524Z" fill="white"/>
<path d="M37.3221 96.6213V90.9314C37.3221 90.0898 36.6402 89.408 35.7987 89.408C34.9571 89.408 34.2752 90.0898 34.2752 90.9314V96.6213C34.2752 97.4629 34.9571 98.1448 35.7987 98.1448C36.6402 98.1448 37.3221 97.4627 37.3221 96.6213Z" fill="white"/>
<path d="M88.3822 30.948H98.5738C99.4154 30.948 100.097 30.2661 100.097 29.4246C100.097 28.583 99.4154 27.9011 98.5738 27.9011H88.3822C87.5407 27.9011 86.8588 28.583 86.8588 29.4246C86.8588 30.2661 87.5407 30.948 88.3822 30.948Z" fill="white"/>
<path d="M88.3822 37.1716H98.5738C99.4154 37.1716 100.097 36.4897 100.097 35.6482C100.097 34.8066 99.4154 34.1248 98.5738 34.1248H88.3822C87.5407 34.1248 86.8588 34.8066 86.8588 35.6482C86.8588 36.4897 87.5407 37.1716 88.3822 37.1716Z" fill="white"/>
<path d="M88.3822 43.3948H93.2587C94.1002 43.3948 94.7821 42.7129 94.7821 41.8713C94.7821 41.0298 94.1002 40.3479 93.2587 40.3479H88.3822C87.5407 40.3479 86.8588 41.0298 86.8588 41.8713C86.8588 42.7129 87.5407 43.3948 88.3822 43.3948Z" fill="white"/>
<path d="M115.699 83.4696C114.992 83.4696 114.32 83.6256 113.716 83.9053C113.046 82.1048 111.309 80.819 109.278 80.819C108.696 80.819 108.139 80.9259 107.624 81.1185C110.145 78.3318 111.567 74.6845 111.567 70.899C111.567 62.6209 104.928 55.8688 96.6953 55.6762V52.1553H103.783C105.519 52.1553 106.932 50.7429 106.932 49.0068V25.7833C106.932 24.9422 106.604 24.1516 106.01 23.5569L101.375 18.922C100.78 18.3274 99.9894 18 99.1487 18H83.1727C81.4366 18 80.0242 19.4123 80.0242 21.1484V27.3968H61.084C60.2425 27.3968 59.5606 28.0787 59.5606 28.9202C59.5606 29.7618 60.2425 30.4436 61.084 30.4436H80.024V38.0399H52.4059V30.4436H53.9747C54.8162 30.4436 55.4981 29.7618 55.4981 28.9202C55.4981 28.0787 54.8162 27.3968 53.9747 27.3968H41.9891C40.0291 27.3968 38.4344 28.9915 38.4344 30.9515V63.1045C37.5884 62.8998 36.7064 62.7887 35.7984 62.7887C29.6159 62.7887 24.5863 67.8184 24.5863 74.0008V82.2878H22.5547C20.5947 82.2878 19 83.8826 19 85.8425V92.3511C19 93.1926 19.6819 93.8745 20.5234 93.8745C21.365 93.8745 22.0469 93.1926 22.0469 92.3511V85.8425C22.0469 85.5624 22.2746 85.3347 22.5547 85.3347H26.1098H45.4871H49.0424C49.3225 85.3347 49.5502 85.5624 49.5502 85.8425V106.682C49.5502 106.962 49.3225 107.19 49.0424 107.19H22.5547C22.2746 107.19 22.0469 106.962 22.0469 106.682V99.4604C22.0469 98.6189 21.365 97.937 20.5234 97.937C19.6819 97.937 19 98.6189 19 99.4604V106.682C19 108.642 20.5947 110.237 22.5547 110.237H49.0424C51.0023 110.237 52.5971 108.642 52.5971 106.682V101.196H82.2988L84.3441 103.457C84.9086 104.081 85.8722 104.129 86.4958 103.564C87.1198 103 87.1681 102.036 86.6035 101.412L81.9358 96.2529C81.919 96.234 81.9015 96.2157 81.8834 96.1978C81.7622 96.0766 81.7543 95.8785 81.8658 95.7652C82.442 95.1798 83.2115 94.8554 84.0323 94.8523H84.0447C84.861 94.8523 85.628 95.1698 86.2055 95.7475L88.9563 98.4982C89.5429 99.0847 90.2981 99.445 91.0842 99.513C92.0257 99.5945 92.9625 99.2762 93.656 98.64C94.3498 98.0036 94.7478 97.0987 94.7478 96.1574V73.2374C94.7478 72.3071 95.5048 71.55 96.4351 71.55C97.3654 71.55 98.1225 72.3071 98.1225 73.2374V85.5533C98.1225 86.3948 98.8044 87.0767 99.6459 87.0767C100.487 87.0767 101.169 86.3948 101.169 85.5533V82.8129C101.169 81.8826 101.926 81.1256 102.857 81.1256C103.787 81.1256 104.544 81.8826 104.544 82.8129V85.5533C104.544 86.3948 105.226 87.0767 106.068 87.0767C106.909 87.0767 107.591 86.3948 107.591 85.5533C107.591 84.623 108.348 83.8659 109.278 83.8659C110.209 83.8659 110.966 84.623 110.966 85.5533V88.2041C110.966 89.0456 111.648 89.7275 112.489 89.7275C113.331 89.7275 114.013 89.0456 114.013 88.2041C114.013 87.2737 114.77 86.5167 115.7 86.5167C116.63 86.5167 117.387 87.2737 117.387 88.2041V104.602C117.387 107.543 115.936 110.294 113.505 111.96C112.078 112.938 111.226 114.579 111.226 116.351V118.445C111.226 118.725 110.999 118.953 110.718 118.953H98.2064C97.9263 118.953 97.6986 118.725 97.6986 118.445L97.6981 117.23C97.6981 114.938 96.8515 112.741 95.3145 111.041L91.3793 106.691C90.8146 106.067 89.8512 106.019 89.2276 106.584C88.6036 107.148 88.5553 108.112 89.12 108.736L93.0551 113.085C94.0843 114.224 94.6513 115.695 94.6513 117.23L94.6517 118.446C94.6517 120.405 96.2464 122 98.2064 122H110.718C112.678 122 114.273 120.405 114.273 118.445V116.351C114.273 115.585 114.63 114.883 115.227 114.473C118.488 112.238 120.434 108.548 120.434 104.602V88.2039C120.434 85.5935 118.31 83.4696 115.699 83.4696ZM38.4344 82.2878H27.6332V74.0008C27.6332 69.4985 31.2962 65.8355 35.7986 65.8355C36.7208 65.8355 37.6069 65.9915 38.4344 66.2745V82.2878ZM83.0709 21.1484C83.0709 21.0926 83.1166 21.0469 83.1725 21.0469H99.1485C99.1753 21.0469 99.2013 21.0578 99.2202 21.0765L103.855 25.7114C103.874 25.7303 103.885 25.7565 103.885 25.7833V49.0066C103.885 49.0625 103.839 49.1082 103.783 49.1082H83.1725C83.1166 49.1082 83.0709 49.0625 83.0709 49.0066V21.1484ZM41.4813 30.9953C41.4813 30.6913 41.7289 30.4436 42.033 30.4436H49.3591V38.0399H41.4813V30.9953ZM91.7009 96.1574C91.7009 96.2803 91.6355 96.3589 91.5963 96.3947C91.5491 96.4383 91.4675 96.4871 91.3466 96.4775C91.2778 96.4717 91.1874 96.4203 91.1108 96.3435L88.3601 93.5928C87.2065 92.4394 85.6752 91.8053 84.0451 91.8053C84.037 91.8053 84.0286 91.8053 84.0203 91.8053C82.3813 91.8118 80.8449 92.4589 79.6946 93.6275C78.476 94.8653 78.4321 96.8379 79.5463 98.1487H52.5973V87.7994H73.0371C73.8787 87.7994 74.5606 87.1175 74.5606 86.276C74.5606 85.4345 73.8787 84.7526 73.0371 84.7526H52.4246C51.9631 83.3244 50.6223 82.2878 49.0426 82.2878H45.4873H41.4813V68.1455C43.0108 69.6303 43.9639 71.7056 43.9639 74.0008C43.9639 74.8423 44.6458 75.5242 45.4873 75.5242C46.3288 75.5242 47.0107 74.8423 47.0107 74.0008C47.0107 69.8913 44.7871 66.2934 41.4813 64.3411V41.0868H80.024V49.0066C80.024 50.7427 81.4364 52.1551 83.1725 52.1551H93.6484V55.909C87.6036 56.9898 82.7853 61.6453 81.4658 67.605H81.0789V60.5545C81.0789 59.7129 80.397 59.031 79.5554 59.031C78.7139 59.031 78.032 59.7129 78.032 60.5545V67.605H73.0851V48.7285C73.0851 47.887 72.4032 47.2051 71.5616 47.2051C70.7201 47.2051 70.0382 47.887 70.0382 48.7285V67.605H65.0913V57.598C65.0913 56.7565 64.4094 56.0746 63.5679 56.0746C62.7263 56.0746 62.0444 56.7565 62.0444 57.598V67.605H57.0975V54.6417C57.0975 53.8002 56.4156 53.1183 55.5741 53.1183C54.7325 53.1183 54.0506 53.8002 54.0506 54.6417V67.605H50.8823C50.0407 67.605 49.3589 68.2868 49.3589 69.1284C49.3589 69.9699 50.0407 70.6518 50.8823 70.6518H81.1091C81.1079 70.7343 81.1028 70.8162 81.1028 70.899C81.1028 72.758 81.45 74.5949 82.1042 76.315H50.8825C50.041 76.315 49.3591 76.9968 49.3591 77.8384C49.3591 78.6799 50.041 79.3618 50.8825 79.3618H83.6724C83.9192 79.7313 84.182 80.091 84.4617 80.4386C86.3365 82.7678 88.8746 84.5019 91.7009 85.407V96.1574ZM101.156 72.8951C100.979 70.444 98.9303 68.5032 96.4351 68.5032C93.8246 68.5032 91.7009 70.6268 91.7009 73.2374V73.3016C91.3227 72.5736 91.1145 71.754 91.1145 70.8992C91.1145 68.0205 93.4563 65.6787 96.335 65.6787C99.2137 65.6787 101.556 68.0205 101.556 70.8992C101.556 71.5949 101.415 72.2715 101.156 72.8951ZM105.517 78.9022C104.758 78.3842 103.843 78.0787 102.857 78.0787C102.262 78.0787 101.694 78.1886 101.169 78.3893V77.5995C103.305 76.0556 104.603 73.5659 104.603 70.899C104.603 66.3405 100.894 62.6316 96.335 62.6316C91.7764 62.6316 88.0676 66.3405 88.0676 70.899C88.0676 73.6703 89.4403 76.2116 91.7009 77.7403V82.1688C87.1734 80.3248 84.1499 75.9333 84.1499 70.8992C84.1499 64.1805 89.616 58.7142 96.335 58.7142C103.054 58.7142 108.52 64.1805 108.52 70.8992C108.52 73.85 107.438 76.6958 105.517 78.9022Z" fill="white"/>
</svg>
