<svg width="94" height="94" viewBox="0 0 94 94" fill="none" xmlns="http://www.w3.org/2000/svg">
<path d="M17.625 14.6875C17.6299 14.0205 17.8583 13.3744 18.2736 12.8526C18.689 12.3307 19.2674 11.9632 19.9163 11.8088L46.3537 5.93376C46.7801 5.84565 47.2199 5.84565 47.6462 5.93376L74.0837 11.8088C74.659 11.9397 75.1815 12.2407 75.5832 12.6728C75.9849 13.1049 76.2473 13.6479 76.336 14.2311C76.4248 14.8143 76.3358 15.4108 76.0808 15.9428C75.8258 16.4748 75.4165 16.9177 74.9062 17.2138V25.8206L77.4031 28.3469C77.6156 28.5446 77.761 28.8038 77.8189 29.0882C77.8768 29.3726 77.8444 29.668 77.7262 29.9331C77.6161 30.2014 77.429 30.431 77.1885 30.593C76.948 30.7551 76.665 30.8423 76.375 30.8438H70.4706C70.2884 30.8393 70.1088 30.7994 69.9419 30.7263C69.7763 30.6739 69.6254 30.5833 69.5012 30.4619V30.4325C69.4861 30.4312 69.4719 30.4246 69.4612 30.4138C69.4504 30.4031 69.4438 30.3889 69.4425 30.3738H69.4131C69.2917 30.2496 69.2011 30.0987 69.1488 29.9331C69.0788 29.7755 69.0389 29.6061 69.0312 29.4338V29.3163C69.0389 29.1439 69.0788 28.9746 69.1488 28.8169C69.2011 28.6513 69.2917 28.5004 69.4131 28.3763H69.4425C69.4425 28.3469 69.4425 28.3469 69.4719 28.3469L71.9688 25.8206V18.0363L64.625 19.6519V32.3125C64.62 34.7863 64.0943 37.2313 63.0821 39.4885C62.0699 41.7457 60.5938 43.7646 58.75 45.4138V48.9975C58.8526 49.0238 58.9513 49.0633 59.0438 49.115L47 60.5713L34.9562 49.115C35.0487 49.0633 35.1474 49.0238 35.25 48.9975V45.4138C33.4062 43.7646 31.9301 41.7457 30.9179 39.4885C29.9057 37.2313 29.38 34.7863 29.375 32.3125V19.6519L19.9163 17.5663C19.2674 17.4118 18.689 17.0443 18.2736 16.5224C17.8583 16.0006 17.6299 15.3545 17.625 14.6875Z" fill="white"/>
<path d="M82.25 82.25V85.1875C82.25 85.9665 81.9405 86.7137 81.3896 87.2646C80.8387 87.8155 80.0916 88.125 79.3125 88.125H14.6875C13.9084 88.125 13.1613 87.8155 12.6104 87.2646C12.0595 86.7137 11.75 85.9665 11.75 85.1875V82.25C11.7388 77.6184 12.6441 73.0304 14.4136 68.7501C16.1832 64.4699 18.7821 60.5821 22.0606 57.3106C24.2137 55.1697 26.6323 53.3137 29.2575 51.7881L44.9731 66.74C45.5159 67.2675 46.243 67.5627 47 67.5627C47.7569 67.5627 48.4841 67.2675 49.0269 66.74L64.7131 51.7881C70.0442 54.8893 74.469 59.3341 77.5461 64.6791C80.6232 70.0241 82.2451 76.0825 82.25 82.25Z" fill="white"/>
</svg>
