<svg width="90" height="90" viewBox="0 0 90 90" fill="none" xmlns="http://www.w3.org/2000/svg">
<path d="M68.9062 71.7188V78.75C68.9062 79.123 69.0544 79.4806 69.3181 79.7444C69.5819 80.0081 69.9395 80.1562 70.3125 80.1562H85.7812C86.1542 80.1562 86.5119 80.0081 86.7756 79.7444C87.0393 79.4806 87.1875 79.123 87.1875 78.75V63.2812C87.1876 62.9082 87.0397 62.5504 86.7762 62.2863L81.1512 56.6613C80.8871 56.3978 80.5293 56.2499 80.1562 56.25H70.3125C69.9395 56.25 69.5819 56.3982 69.3181 56.6619C69.0544 56.9256 68.9062 57.2833 68.9062 57.6563V71.7188ZM80.1562 74.5312H75.9375C75.5645 74.5312 75.2069 74.3831 74.9431 74.1194C74.6794 73.8556 74.5312 73.498 74.5312 73.125C74.5312 72.752 74.6794 72.3944 74.9431 72.1306C75.2069 71.8669 75.5645 71.7188 75.9375 71.7188H80.1562C80.5292 71.7188 80.8869 71.8669 81.1506 72.1306C81.4143 72.3944 81.5625 72.752 81.5625 73.125C81.5625 73.498 81.4143 73.8556 81.1506 74.1194C80.8869 74.3831 80.5292 74.5312 80.1562 74.5312ZM80.1562 68.9062H75.9375C75.5645 68.9062 75.2069 68.7581 74.9431 68.4944C74.6794 68.2306 74.5312 67.873 74.5312 67.5C74.5312 67.127 74.6794 66.7694 74.9431 66.5056C75.2069 66.2419 75.5645 66.0938 75.9375 66.0938H80.1562C80.5292 66.0938 80.8869 66.2419 81.1506 66.5056C81.4143 66.7694 81.5625 67.127 81.5625 67.5C81.5625 67.873 81.4143 68.2306 81.1506 68.4944C80.8869 68.7581 80.5292 68.9062 80.1562 68.9062Z" fill="white"/>
<path d="M61.5234 56.25H59.059V68.9062H66.0938V60.8203C66.0937 59.6082 65.6122 58.4457 64.7551 57.5886C63.898 56.7315 62.7356 56.25 61.5234 56.25ZM59.0625 42.1875V35.441C58.6839 35.5155 58.2988 35.5526 57.9129 35.5518C57.3505 35.5522 56.7908 35.4741 56.25 35.3197V53.7891H59.059L59.0625 45H66.0727V42.1875H59.0625ZM86.7762 35.5676L81.1512 29.9426C80.8871 29.6791 80.5293 29.5311 80.1562 29.5312H70.3125C69.9819 29.5312 69.6618 29.6476 69.4085 29.8601C69.1551 30.0726 68.9848 30.3676 68.9273 30.6932L68.9062 52.0312C68.9062 52.4042 69.0544 52.7619 69.3181 53.0256C69.5819 53.2893 69.9395 53.4375 70.3125 53.4375H85.7812C86.1542 53.4375 86.5119 53.2893 86.7756 53.0256C87.0393 52.7619 87.1875 52.4042 87.1875 52.0312V36.5625C87.1876 36.1895 87.0397 35.8316 86.7762 35.5676ZM80.1562 47.8125H75.9375C75.5645 47.8125 75.2069 47.6643 74.9431 47.4006C74.6794 47.1369 74.5312 46.7792 74.5312 46.4062C74.5312 46.0333 74.6794 45.6756 74.9431 45.4119C75.2069 45.1482 75.5645 45 75.9375 45H80.1562C80.5292 45 80.8869 45.1482 81.1506 45.4119C81.4143 45.6756 81.5625 46.0333 81.5625 46.4062C81.5625 46.7792 81.4143 47.1369 81.1506 47.4006C80.8869 47.6643 80.5292 47.8125 80.1562 47.8125ZM80.1562 42.1875H75.9375C75.5645 42.1875 75.2069 42.0393 74.9431 41.7756C74.6794 41.5119 74.5312 41.1542 74.5312 40.7812C74.5312 40.4083 74.6794 40.0506 74.9431 39.7869C75.2069 39.5232 75.5645 39.375 75.9375 39.375H80.1562C80.5292 39.375 80.8869 39.5232 81.1506 39.7869C81.4143 40.0506 81.5625 40.4083 81.5625 40.7812C81.5625 41.1542 81.4143 41.5119 81.1506 41.7756C80.8869 42.0393 80.5292 42.1875 80.1562 42.1875ZM57.6562 15.4688C57.2833 15.4688 56.9256 15.6169 56.6619 15.8806C56.3982 16.1444 56.25 16.502 56.25 16.875V23.7428C56.7908 23.5884 57.3505 23.5103 57.9129 23.5107C58.2988 23.5099 58.6839 23.547 59.0625 23.6215V18.2812H66.0727V15.4688H57.6562ZM86.7762 8.84883L81.1512 3.22383C80.8871 2.9603 80.5293 2.81236 80.1562 2.8125H70.3125C69.9395 2.8125 69.5819 2.96066 69.3181 3.22438C69.0544 3.4881 68.9062 3.84579 68.9062 4.21875L68.9273 25.5568C68.9848 25.8824 69.1551 26.1774 69.4085 26.3899C69.6618 26.6024 69.9819 26.7188 70.3125 26.7188H85.7812C86.1542 26.7188 86.5119 26.5706 86.7756 26.3069C87.0393 26.0431 87.1875 25.6855 87.1875 25.3125V9.84375C87.1876 9.47071 87.0397 9.11286 86.7762 8.84883ZM80.1562 21.0938H75.9375C75.5645 21.0938 75.2069 20.9456 74.9431 20.6819C74.6794 20.4181 74.5312 20.0605 74.5312 19.6875C74.5312 19.3145 74.6794 18.9569 74.9431 18.6931C75.2069 18.4294 75.5645 18.2812 75.9375 18.2812H80.1562C80.5292 18.2812 80.8869 18.4294 81.1506 18.6931C81.4143 18.9569 81.5625 19.3145 81.5625 19.6875C81.5625 20.0605 81.4143 20.4181 81.1506 20.6819C80.8869 20.9456 80.5292 21.0938 80.1562 21.0938ZM80.1562 15.4688H75.9375C75.5645 15.4688 75.2069 15.3206 74.9431 15.0569C74.6794 14.7931 74.5312 14.4355 74.5312 14.0625C74.5312 13.6895 74.6794 13.3319 74.9431 13.0681C75.2069 12.8044 75.5645 12.6562 75.9375 12.6562H80.1562C80.5292 12.6562 80.8869 12.8044 81.1506 13.0681C81.4143 13.3319 81.5625 13.6895 81.5625 14.0625C81.5625 14.4355 81.4143 14.7931 81.1506 15.0569C80.8869 15.3206 80.5292 15.4688 80.1562 15.4688ZM52.0576 28.125H38.3854C38.6057 29.0496 38.6057 30.0129 38.3854 30.9375H43.5938V49.4648C44.5183 49.2445 45.4817 49.2445 46.4062 49.4648V30.9375H52.0576C51.8373 30.0129 51.8373 29.0496 52.0576 28.125ZM58.6934 71.7188C58.0453 71.7188 57.4239 71.4613 56.9656 71.0031C56.5074 70.5449 56.25 69.9234 56.25 69.2754V56.25H50.9502C50.8038 57.1873 50.438 58.0767 49.8827 58.8457C49.3273 59.6148 48.598 60.2417 47.7544 60.6754C46.9107 61.1091 45.9765 61.3374 45.0279 61.3415C44.0792 61.3456 43.1431 61.1255 42.2957 60.6991C41.4483 60.2727 40.7136 59.6521 40.1516 58.8879C39.5896 58.1236 39.2161 57.2374 39.0617 56.3015C38.9072 55.3655 38.976 54.4063 39.2627 53.502C39.5493 52.5977 40.0455 51.7739 40.7109 51.0979C40.0538 50.7864 39.3358 50.6249 38.6086 50.625H28.4766C27.8764 50.625 27.2821 50.7432 26.7276 50.9729C26.1731 51.2026 25.6693 51.5392 25.2449 51.9636C24.8205 52.388 24.4838 52.8918 24.2541 53.4463C24.0245 54.0008 23.9062 54.5951 23.9062 55.1953V82.6172C23.9062 83.8293 24.3878 84.9918 25.2449 85.8489C26.102 86.706 27.2644 87.1875 28.4766 87.1875H61.5234C62.7356 87.1875 63.898 86.706 64.7551 85.8489C65.6122 84.9918 66.0938 83.8293 66.0938 82.6172V71.7188H58.6934ZM32.5318 35.5518C31.9931 35.5526 31.4568 35.4804 30.9375 35.3373V40.7812H23.9273V43.5938H32.3438C32.7167 43.5938 33.0744 43.4456 33.3381 43.1819C33.6018 42.9181 33.75 42.5605 33.75 42.1875V35.427C33.3493 35.5105 32.9411 35.5523 32.5318 35.5518ZM21.0727 36.3234C21.0247 36.0369 20.8882 35.7726 20.6824 35.5676L15.0574 29.9426C14.7934 29.6791 14.4355 29.5311 14.0625 29.5312H4.21875C3.84579 29.5312 3.4881 29.6794 3.22438 29.9431C2.96066 30.2069 2.8125 30.5645 2.8125 30.9375V52.0312C2.8125 52.4042 2.96066 52.7619 3.22438 53.0256C3.4881 53.2893 3.84579 53.4375 4.21875 53.4375H19.6875C20.0605 53.4375 20.4181 53.2893 20.6819 53.0256C20.9456 52.7619 21.0938 52.4042 21.0938 52.0312L21.0727 36.3234ZM14.0625 47.8125H9.84375C9.47079 47.8125 9.1131 47.6643 8.84938 47.4006C8.58566 47.1369 8.4375 46.7792 8.4375 46.4062C8.4375 46.0333 8.58566 45.6756 8.84938 45.4119C9.1131 45.1482 9.47079 45 9.84375 45H14.0625C14.4355 45 14.7931 45.1482 15.0569 45.4119C15.3206 45.6756 15.4688 46.0333 15.4688 46.4062C15.4688 46.7792 15.3206 47.1369 15.0569 47.4006C14.7931 47.6643 14.4355 47.8125 14.0625 47.8125ZM14.0625 42.1875H9.84375C9.47079 42.1875 9.1131 42.0393 8.84938 41.7756C8.58566 41.5119 8.4375 41.1542 8.4375 40.7812C8.4375 40.4083 8.58566 40.0506 8.84938 39.7869C9.1131 39.5232 9.47079 39.375 9.84375 39.375H14.0625C14.4355 39.375 14.7931 39.5232 15.0569 39.7869C15.3206 40.0506 15.4688 40.4083 15.4688 40.7812C15.4688 41.1542 15.3206 41.5119 15.0569 41.7756C14.7931 42.0393 14.4355 42.1875 14.0625 42.1875ZM32.3438 15.4688H23.9273V18.2812H30.9375V23.7252C31.8548 23.4736 32.8186 23.4429 33.75 23.6355V16.875C33.75 16.502 33.6018 16.1444 33.3381 15.8806C33.0744 15.6169 32.7167 15.4688 32.3438 15.4688ZM20.6824 8.84883L15.0574 3.22383C14.7934 2.9603 14.4355 2.81236 14.0625 2.8125H4.21875C3.84579 2.8125 3.4881 2.96066 3.22438 3.22438C2.96066 3.4881 2.8125 3.84579 2.8125 4.21875V25.3125C2.8125 25.6855 2.96066 26.0431 3.22438 26.3069C3.4881 26.5706 3.84579 26.7188 4.21875 26.7188H19.6875C20.0181 26.7188 20.3382 26.6024 20.5915 26.3899C20.8449 26.1774 21.0152 25.8824 21.0727 25.5568L21.0938 9.84375C21.0939 9.47071 20.9459 9.11286 20.6824 8.84883ZM14.0625 21.0938H9.84375C9.47079 21.0938 9.1131 20.9456 8.84938 20.6819C8.58566 20.4181 8.4375 20.0605 8.4375 19.6875C8.4375 19.3145 8.58566 18.9569 8.84938 18.6931C9.1131 18.4294 9.47079 18.2812 9.84375 18.2812H14.0625C14.4355 18.2812 14.7931 18.4294 15.0569 18.6931C15.3206 18.9569 15.4688 19.3145 15.4688 19.6875C15.4688 20.0605 15.3206 20.4181 15.0569 20.6819C14.7931 20.9456 14.4355 21.0938 14.0625 21.0938ZM14.0625 15.4688H9.84375C9.47079 15.4688 9.1131 15.3206 8.84938 15.0569C8.58566 14.7931 8.4375 14.4355 8.4375 14.0625C8.4375 13.6895 8.58566 13.3319 8.84938 13.0681C9.1131 12.8044 9.47079 12.6562 9.84375 12.6562H14.0625C14.4355 12.6562 14.7931 12.8044 15.0569 13.0681C15.3206 13.3319 15.4688 13.6895 15.4688 14.0625C15.4688 14.4355 15.3206 14.7931 15.0569 15.0569C14.7931 15.3206 14.4355 15.4688 14.0625 15.4688Z" fill="white"/>
<path d="M57.3817 33.0915C59.348 33.0915 60.942 31.4975 60.942 29.5312C60.942 27.5649 59.348 25.9709 57.3817 25.9709C55.4154 25.9709 53.8214 27.5649 53.8214 29.5312C53.8214 31.4975 55.4154 33.0915 57.3817 33.0915Z" fill="white"/>
<path d="M45 58.7155C46.9663 58.7155 48.5603 57.1215 48.5603 55.1552C48.5603 53.189 46.9663 51.595 45 51.595C43.0337 51.595 41.4397 53.189 41.4397 55.1552C41.4397 57.1215 43.0337 58.7155 45 58.7155Z" fill="white"/>
<path d="M32.5914 33.0915C34.5577 33.0915 36.1517 31.4975 36.1517 29.5312C36.1517 27.5649 34.5577 25.9709 32.5914 25.9709C30.6251 25.9709 29.0312 27.5649 29.0312 29.5312C29.0312 31.4975 30.6251 33.0915 32.5914 33.0915Z" fill="white"/>
</svg>
