<svg width="78" height="78" viewBox="0 0 78 78" fill="none" xmlns="http://www.w3.org/2000/svg">
<path d="M1.56 65.247C1.56 67.1032 3.0732 68.6008 4.9296 68.6008H73.086C74.9424 68.6008 76.44 67.1032 76.44 65.247V57.946H1.56V65.247ZM16.6664 62.4914H46.7903C47.1023 61.7225 47.8558 61.1748 48.7328 61.1748C49.7525 61.1748 50.6064 61.9144 50.7909 62.883H61.3475V63.663H50.7909C50.6059 64.6308 49.7521 65.3699 48.733 65.3699C47.8553 65.3699 47.1015 64.8213 46.79 64.0514H16.6664V62.4914Z" fill="white"/>
<path fill-rule="evenodd" clip-rule="evenodd" d="M4.9296 9.39893H73.086C74.9424 9.39893 76.44 10.8965 76.44 12.7529V55.6061H1.56V12.7529C1.56 10.8965 3.0732 9.39893 4.9296 9.39893ZM30.4173 22.1421V47.8152L53.1893 34.9854L30.4173 22.1421Z" fill="white"/>
</svg>
