<svg width="94" height="94" viewBox="0 0 94 94" fill="none" xmlns="http://www.w3.org/2000/svg">
<path d="M14.7242 93.8896L36.9881 87.5448C36.4309 87.385 9.54467 79.6937 11.1992 80.1672V91.246C11.1992 92.1271 11.5848 92.8984 12.3008 93.449C13.0822 94.0566 13.8459 94.0655 14.7242 93.8896Z" fill="white"/>
<path d="M81.6992 93.4491C82.4152 92.8985 82.8008 92.1273 82.8008 91.2462V80.168C82.2434 80.3273 55.3568 88.0183 57.0115 87.5449L79.2758 93.8898C80.1403 94.0629 80.9092 94.064 81.6992 93.4491Z" fill="white"/>
<path d="M77.293 2.75584C77.293 0.876394 75.4513 -0.451173 73.6685 0.14312L49.7539 8.11329V56.2694C51.6523 54.4325 53.9527 52.9776 56.5796 52.1022L77.293 45.1994C77.293 36.025 77.293 11.8344 77.293 2.75584Z" fill="white"/>
<path d="M44.2461 56.2705C44.2461 37.9691 44.2461 17.4713 44.2461 8.1133L20.3315 0.143133C18.5487 -0.45116 16.707 0.876222 16.707 2.75586V45.1998L37.4204 52.1051C40.0473 52.9794 42.3477 54.434 44.2461 56.2705Z" fill="white"/>
<path d="M90.2547 11.1807L82.8008 13.9346V58.1992C82.8008 59.3852 82.0424 60.4369 80.9182 60.8107L47.8713 71.8263C47.589 71.9205 47.2932 71.9688 47 71.9688C46.7068 71.9688 46.411 71.9203 46.1287 71.8263L13.0818 60.8107C11.9576 60.4367 11.1992 59.3852 11.1992 58.1992V13.9346L3.74531 11.1807C2.86425 10.8502 1.92755 11.0156 1.21154 11.5112C0.440809 12.007 0 12.8881 0 13.7695V69.2148C0 70.4264 0.826356 71.5279 1.98281 71.8584C3.30304 72.2335 2.50018 72.0024 2.14291 71.8994C3.1826 72.1971 10.9143 74.3612 46.9961 84.6907C47.1377 84.6534 47.051 84.6762 46.9961 84.6907C46.9974 84.6911 46.9989 84.6914 47.0002 84.6916C51.5864 83.3734 50.473 83.7494 92.0174 71.8582C93.1738 71.5278 94.0002 70.4262 94.0002 69.2147V13.7694C94.0002 12.8879 93.5594 12.0069 92.7886 11.511C92.0725 11.0156 91.1358 10.8502 90.2547 11.1807ZM2.07241 71.8793C1.9885 71.8551 1.97088 71.85 2.07241 71.8793Z" fill="white"/>
<path d="M16.707 56.2145L43.5661 65.1683C42.3283 61.537 39.4684 58.5915 35.6778 57.3305L16.707 51.0039V56.2145Z" fill="white"/>
<path d="M50.4339 65.1682L77.293 56.2144V51.0034L58.3222 57.3279C54.5316 58.5908 51.6717 61.5366 50.4339 65.1682Z" fill="white"/>
</svg>
