<svg width="97" height="97" viewBox="0 0 97 97" fill="none" xmlns="http://www.w3.org/2000/svg">
<path d="M22.7344 3.0293C18.5623 3.0293 15.1592 6.43244 15.1592 10.6046V72.9316C17.0895 70.9512 19.7758 69.7106 22.7344 69.7108H81.8408V7.57327C81.8408 5.08058 79.7926 3.0293 77.2998 3.0293H22.7344ZM48.4793 12.126C48.8882 12.1145 49.2832 12.2743 49.5746 12.5613L56.7027 19.7013H66.6934C67.5305 19.7046 68.2063 20.3858 68.2031 21.2228V31.2016L75.3402 38.3299C75.9338 38.9222 75.9338 39.8839 75.3402 40.4761L68.2031 47.6161V57.5949C68.1998 58.4273 67.5258 59.1013 66.6934 59.1046H56.7027L49.5746 66.2446C48.982 66.8402 48.018 66.8402 47.4255 66.2446L40.2884 59.1044H30.3095C29.4771 59.1011 28.8032 58.4271 28.7998 57.5947V47.6159L21.6598 40.4759C21.0662 39.8837 21.0662 38.922 21.6598 38.3297L28.7998 31.2016V21.2227C28.7966 20.3856 29.4725 19.7044 30.3095 19.7011H40.2884L47.4255 12.5611C47.7067 12.2844 48.0847 12.1283 48.4793 12.126ZM53.0439 27.2734V29.7362L50.7054 28.9756C50.5151 28.9108 50.3138 28.8851 50.1133 28.8988C48.4265 29.0013 48.1472 31.3701 49.764 31.8619L52.1055 32.6227L50.6609 34.6149C49.3979 36.2667 51.9477 38.1107 53.1209 36.394L54.5625 34.4048L56.0071 36.394C57.1716 38.1548 59.7714 36.2674 58.4581 34.6149L57.0135 32.6257L59.3521 31.8619C61.0738 31.3389 60.6121 28.7856 58.8163 28.8988C58.6793 28.9045 58.5438 28.9332 58.4137 28.9756L56.0752 29.7391V27.2734C56.0835 26.4236 55.3916 25.7331 54.5418 25.743C53.7059 25.7545 53.0358 26.4375 53.0439 27.2734ZM44.2669 29.1206C38.707 30.4541 34.8685 35.3267 34.8623 40.914C34.8623 40.9178 34.8623 40.9198 34.8623 40.9256C34.8624 47.6038 40.3003 53.0416 46.9785 53.0417H46.9903C52.5785 53.0359 57.4503 49.1998 58.76 43.7672C59.2542 42.0303 57.0379 41.2391 56.1403 42.3582C54.8179 43.3799 53.2096 43.9549 51.5342 43.9567C47.3307 43.9567 43.9472 40.5732 43.9472 36.3697C43.9483 34.6209 44.5607 32.9348 45.6671 31.5801C46.426 30.6729 45.8636 28.9858 44.2669 29.1206ZM22.7344 72.7421C18.5623 72.7418 15.1592 76.157 15.1592 80.3291C15.1592 84.5012 18.5623 87.9042 22.7344 87.9042H24.2441V81.8388H22.7344C20.759 81.793 20.759 78.8527 22.7344 78.8077H74.2686C76.2439 78.8535 76.2439 81.7938 74.2686 81.8388H45.4688V87.9042H77.2998C79.7926 87.9042 81.8405 85.8531 81.8408 83.3604L81.8438 72.7481L22.7344 72.7421ZM27.2753 81.8418V92.4452C27.2659 93.8062 28.9164 94.4894 29.8714 93.5198L34.8623 88.529L39.8532 93.5198C40.8091 94.4701 42.4367 93.793 42.4375 92.4452V81.8418H27.2753Z" fill="white"/>
</svg>
