<svg width="121" height="121" viewBox="0 0 121 121" fill="none" xmlns="http://www.w3.org/2000/svg">
<path fill-rule="evenodd" clip-rule="evenodd" d="M80.5975 104.714H23.5984C22.1462 104.714 21.0051 103.573 21.0051 102.121V18.8786C21.0051 17.4264 22.1462 16.2854 23.5984 16.2854H80.5975C81.9979 16.2854 83.1907 17.4264 83.1907 18.8786V102.121C83.1907 103.573 81.9979 104.714 80.5975 104.714ZM73.4402 39.5726H30.6519C30.0814 39.5726 29.6665 39.1058 29.6665 38.5353V27.3844C29.6665 26.8139 30.0814 26.3471 30.6519 26.3471H73.4921C74.1144 26.3471 74.5294 26.8139 74.5294 27.3844V38.5353C74.5294 39.1058 74.0107 39.5726 73.4402 39.5726ZM31.6892 37.4461H72.4548V28.3698H31.6892V37.4461ZM73.1809 48.1821H31.015C30.4445 48.1821 30.0296 47.7672 30.0296 47.1967C30.0296 46.6262 30.4445 46.1594 31.015 46.1594H73.1809C73.7514 46.1594 74.1663 46.6262 74.1663 47.1967C74.1663 47.7672 73.7514 48.1821 73.1809 48.1821ZM73.1809 56.6879H31.015C30.4445 56.6879 30.0296 56.273 30.0296 55.7025C30.0296 55.132 30.4445 54.6652 31.015 54.6652H73.1809C73.7514 54.6652 74.1663 55.132 74.1663 55.7025C74.1663 56.273 73.7514 56.6879 73.1809 56.6879ZM73.1809 65.1418H31.015C30.4445 65.1418 30.0296 64.675 30.0296 64.1045C30.0296 63.534 30.4445 63.1191 31.015 63.1191H73.1809C73.7514 63.1191 74.1663 63.534 74.1663 64.1045C74.1663 64.675 73.7514 65.1418 73.1809 65.1418ZM73.1809 73.5957H31.015C30.4445 73.5957 30.0296 73.1808 30.0296 72.6103C30.0296 72.0398 30.4445 71.6249 31.015 71.6249H73.1809C73.7514 71.6249 74.1663 72.0398 74.1663 72.6103C74.1663 73.1808 73.7514 73.5957 73.1809 73.5957ZM45.6408 96.7273H31.015C30.4445 96.7273 30.0296 96.3124 30.0296 95.7419V81.0124C30.0296 80.4419 30.4445 80.0269 31.015 80.0269H45.6927C46.315 80.0269 46.73 80.4419 46.73 81.0124V95.7419C46.73 96.3124 46.2113 96.7273 45.6408 96.7273ZM32.0523 94.6527H44.6554V82.0497H32.0523V94.6527ZM73.1809 82.0497H54.354C53.7835 82.0497 53.3686 81.6347 53.3686 81.0124C53.3686 80.4419 53.7835 80.0269 54.354 80.0269H73.1809C73.7514 80.0269 74.1663 80.4419 74.1663 81.0124C74.1663 81.6347 73.7514 82.0497 73.1809 82.0497ZM73.1809 96.6755H54.354C53.7835 96.6755 53.3686 96.2087 53.3686 95.6382C53.3686 95.0677 53.7835 94.6527 54.354 94.6527H73.1809C73.7514 94.6527 74.1663 95.0677 74.1663 95.6382C74.1663 96.2087 73.7514 96.6755 73.1809 96.6755ZM73.1809 89.4144H54.354C53.7835 89.4144 53.3686 88.9476 53.3686 88.3771C53.3686 87.8066 53.7835 87.3917 54.354 87.3917H73.1809C73.7514 87.3917 74.1663 87.8066 74.1663 88.3771C74.1663 88.9476 73.7514 89.4144 73.1809 89.4144Z" fill="white"/>
<path fill-rule="evenodd" clip-rule="evenodd" d="M85.2653 20.3828L98.024 22.976C98.6464 23.1316 99.2169 23.4947 99.5799 24.0652C99.943 24.6357 100.099 25.3099 99.943 25.9323L85.2653 98.5946V20.3828Z" fill="white"/>
</svg>
